<svg xmlns="http://www.w3.org/2000/svg" xmlns:xlink="http://www.w3.org/1999/xlink" width="500" zoomAndPan="magnify" viewBox="0 0 375 374.999991" height="500" preserveAspectRatio="xMidYMid meet" version="1.0"><defs><clipPath id="330193ed7d"><path d="M 8.019531 8.019531 L 367 8.019531 L 367 367 L 8.019531 367 Z M 8.019531 8.019531 " clip-rule="nonzero"/></clipPath></defs><rect x="-37.5" width="450" fill="#ffffff" y="-37.499999" height="449.999989" fill-opacity="1"/><rect x="-37.5" width="450" fill="#ffffff" y="-37.499999" height="449.999989" fill-opacity="1"/><g clip-path="url(#330193ed7d)"><path fill="#d60246" d="M 366.976562 187.496094 C 366.976562 190.433594 366.902344 193.371094 366.757812 196.304688 C 366.613281 199.238281 366.398438 202.164062 366.109375 205.089844 C 365.824219 208.011719 365.464844 210.925781 365.03125 213.832031 C 364.601562 216.738281 364.097656 219.628906 363.527344 222.511719 C 362.953125 225.390625 362.308594 228.257812 361.597656 231.105469 C 360.882812 233.957031 360.097656 236.785156 359.246094 239.597656 C 358.394531 242.40625 357.472656 245.195312 356.484375 247.960938 C 355.492188 250.726562 354.4375 253.464844 353.3125 256.179688 C 352.1875 258.894531 351 261.578125 349.742188 264.234375 C 348.488281 266.886719 347.167969 269.511719 345.78125 272.101562 C 344.398438 274.691406 342.949219 277.246094 341.441406 279.765625 C 339.929688 282.285156 338.359375 284.765625 336.726562 287.210938 C 335.09375 289.652344 333.40625 292.050781 331.65625 294.410156 C 329.90625 296.769531 328.097656 299.085938 326.234375 301.355469 C 324.371094 303.625 322.453125 305.851562 320.480469 308.027344 C 318.507812 310.203125 316.484375 312.328125 314.40625 314.40625 C 312.328125 316.484375 310.203125 318.507812 308.027344 320.480469 C 305.851562 322.453125 303.625 324.371094 301.355469 326.234375 C 299.085938 328.097656 296.769531 329.90625 294.410156 331.65625 C 292.050781 333.40625 289.652344 335.09375 287.210938 336.726562 C 284.765625 338.359375 282.285156 339.929688 279.765625 341.441406 C 277.246094 342.949219 274.691406 344.398438 272.101562 345.78125 C 269.511719 347.167969 266.886719 348.488281 264.234375 349.742188 C 261.578125 351 258.894531 352.1875 256.179688 353.3125 C 253.464844 354.4375 250.726562 355.492188 247.960938 356.484375 C 245.195312 357.472656 242.40625 358.394531 239.597656 359.246094 C 236.785156 360.097656 233.957031 360.882812 231.105469 361.597656 C 228.257812 362.308594 225.390625 362.953125 222.511719 363.527344 C 219.628906 364.097656 216.738281 364.601562 213.832031 365.03125 C 210.925781 365.464844 208.011719 365.824219 205.089844 366.109375 C 202.164062 366.398438 199.238281 366.613281 196.304688 366.757812 C 193.371094 366.902344 190.433594 366.976562 187.496094 366.976562 C 184.558594 366.976562 181.625 366.902344 178.691406 366.757812 C 175.757812 366.613281 172.828125 366.398438 169.90625 366.109375 C 166.980469 365.824219 164.066406 365.464844 161.160156 365.03125 C 158.257812 364.601562 155.363281 364.097656 152.480469 363.527344 C 149.601562 362.953125 146.734375 362.308594 143.886719 361.597656 C 141.039062 360.882812 138.207031 360.097656 135.398438 359.246094 C 132.585938 358.394531 129.796875 357.472656 127.03125 356.484375 C 124.265625 355.492188 121.527344 354.4375 118.8125 353.3125 C 116.097656 352.1875 113.414062 351 110.757812 349.742188 C 108.105469 348.488281 105.480469 347.167969 102.890625 345.78125 C 100.300781 344.398438 97.746094 342.949219 95.226562 341.441406 C 92.707031 339.929688 90.226562 338.359375 87.785156 336.726562 C 85.339844 335.09375 82.941406 333.40625 80.582031 331.65625 C 78.222656 329.90625 75.90625 328.097656 73.636719 326.234375 C 71.367188 324.371094 69.140625 322.453125 66.964844 320.480469 C 64.789062 318.507812 62.664062 316.484375 60.585938 314.40625 C 58.507812 312.328125 56.484375 310.203125 54.511719 308.027344 C 52.539062 305.851562 50.621094 303.625 48.757812 301.355469 C 46.894531 299.085938 45.085938 296.769531 43.339844 294.410156 C 41.589844 292.050781 39.898438 289.652344 38.265625 287.210938 C 36.632812 284.765625 35.0625 282.285156 33.550781 279.765625 C 32.042969 277.246094 30.59375 274.691406 29.210938 272.101562 C 27.824219 269.511719 26.503906 266.886719 25.25 264.234375 C 23.992188 261.578125 22.804688 258.894531 21.679688 256.179688 C 20.554688 253.464844 19.5 250.726562 18.507812 247.960938 C 17.519531 245.195312 16.597656 242.40625 15.746094 239.597656 C 14.894531 236.785156 14.109375 233.957031 13.398438 231.105469 C 12.683594 228.257812 12.039062 225.390625 11.464844 222.511719 C 10.894531 219.628906 10.390625 216.738281 9.960938 213.832031 C 9.53125 210.925781 9.171875 208.011719 8.882812 205.089844 C 8.59375 202.164062 8.378906 199.238281 8.234375 196.304688 C 8.089844 193.371094 8.019531 190.433594 8.019531 187.496094 C 8.019531 184.558594 8.089844 181.625 8.234375 178.691406 C 8.378906 175.757812 8.59375 172.828125 8.882812 169.90625 C 9.171875 166.980469 9.53125 164.066406 9.960938 161.160156 C 10.390625 158.257812 10.894531 155.363281 11.464844 152.480469 C 12.039062 149.601562 12.683594 146.734375 13.398438 143.886719 C 14.109375 141.039062 14.894531 138.207031 15.746094 135.398438 C 16.597656 132.585938 17.519531 129.796875 18.507812 127.03125 C 19.5 124.265625 20.554688 121.527344 21.679688 118.8125 C 22.804688 116.097656 23.992188 113.414062 25.25 110.757812 C 26.503906 108.105469 27.824219 105.480469 29.210938 102.890625 C 30.59375 100.300781 32.042969 97.746094 33.550781 95.226562 C 35.0625 92.707031 36.632812 90.226562 38.265625 87.785156 C 39.898438 85.339844 41.589844 82.941406 43.339844 80.582031 C 45.085938 78.222656 46.894531 75.90625 48.757812 73.636719 C 50.621094 71.367188 52.539062 69.140625 54.511719 66.964844 C 56.484375 64.789062 58.507812 62.664062 60.585938 60.585938 C 62.664062 58.507812 64.789062 56.484375 66.964844 54.511719 C 69.140625 52.539062 71.367188 50.621094 73.636719 48.757812 C 75.90625 46.894531 78.222656 45.085938 80.582031 43.339844 C 82.941406 41.589844 85.339844 39.898438 87.785156 38.265625 C 90.226562 36.632812 92.707031 35.0625 95.226562 33.550781 C 97.746094 32.042969 100.300781 30.59375 102.890625 29.210938 C 105.480469 27.824219 108.105469 26.503906 110.757812 25.25 C 113.414062 23.992188 116.097656 22.804688 118.8125 21.679688 C 121.527344 20.554688 124.265625 19.5 127.03125 18.507812 C 129.796875 17.519531 132.585938 16.597656 135.398438 15.746094 C 138.207031 14.894531 141.039062 14.109375 143.886719 13.398438 C 146.734375 12.683594 149.601562 12.039062 152.480469 11.464844 C 155.363281 10.894531 158.257812 10.390625 161.160156 9.960938 C 164.066406 9.53125 166.980469 9.171875 169.90625 8.882812 C 172.828125 8.59375 175.757812 8.378906 178.691406 8.234375 C 181.625 8.089844 184.558594 8.019531 187.496094 8.019531 C 190.433594 8.019531 193.371094 8.089844 196.304688 8.234375 C 199.238281 8.378906 202.164062 8.59375 205.089844 8.882812 C 208.011719 9.171875 210.925781 9.53125 213.832031 9.960938 C 216.738281 10.390625 219.628906 10.894531 222.511719 11.464844 C 225.390625 12.039062 228.257812 12.683594 231.105469 13.398438 C 233.957031 14.109375 236.785156 14.894531 239.597656 15.746094 C 242.40625 16.597656 245.195312 17.519531 247.960938 18.507812 C 250.726562 19.5 253.464844 20.554688 256.179688 21.679688 C 258.894531 22.804688 261.578125 23.992188 264.234375 25.25 C 266.886719 26.503906 269.511719 27.824219 272.101562 29.210938 C 274.691406 30.59375 277.246094 32.042969 279.765625 33.550781 C 282.285156 35.0625 284.765625 36.632812 287.210938 38.265625 C 289.652344 39.898438 292.050781 41.589844 294.410156 43.339844 C 296.769531 45.085938 299.085938 46.894531 301.355469 48.757812 C 303.625 50.621094 305.851562 52.539062 308.027344 54.511719 C 310.203125 56.484375 312.328125 58.507812 314.40625 60.585938 C 316.484375 62.664062 318.507812 64.789062 320.480469 66.964844 C 322.453125 69.140625 324.371094 71.367188 326.234375 73.636719 C 328.097656 75.90625 329.90625 78.222656 331.65625 80.582031 C 333.40625 82.941406 335.09375 85.339844 336.726562 87.785156 C 338.359375 90.226562 339.929688 92.707031 341.441406 95.226562 C 342.949219 97.746094 344.398438 100.300781 345.78125 102.890625 C 347.167969 105.480469 348.488281 108.105469 349.742188 110.757812 C 351 113.414062 352.1875 116.097656 353.3125 118.8125 C 354.4375 121.527344 355.492188 124.265625 356.484375 127.03125 C 357.472656 129.796875 358.394531 132.585938 359.246094 135.398438 C 360.097656 138.207031 360.882812 141.039062 361.597656 143.886719 C 362.308594 146.734375 362.953125 149.601562 363.527344 152.480469 C 364.097656 155.363281 364.601562 158.257812 365.03125 161.160156 C 365.464844 164.066406 365.824219 166.980469 366.109375 169.90625 C 366.398438 172.828125 366.613281 175.757812 366.757812 178.691406 C 366.902344 181.625 366.976562 184.558594 366.976562 187.496094 Z M 366.976562 187.496094 " fill-opacity="1" fill-rule="nonzero"/></g><path fill="#ffffff" d="M 281.605469 129.152344 L 191.476562 67.277344 C 190.890625 66.875 190.257812 66.570312 189.582031 66.359375 C 188.902344 66.148438 188.207031 66.042969 187.496094 66.042969 C 186.785156 66.042969 186.089844 66.148438 185.414062 66.359375 C 184.734375 66.570312 184.101562 66.875 183.515625 67.277344 L 93.390625 129.152344 C 92.773438 129.578125 92.234375 130.089844 91.78125 130.6875 C 91.328125 131.285156 90.980469 131.9375 90.734375 132.644531 C 90.488281 133.355469 90.359375 134.082031 90.347656 134.832031 C 90.335938 135.582031 90.441406 136.316406 90.664062 137.03125 C 90.886719 137.746094 91.214844 138.410156 91.648438 139.019531 C 92.082031 139.632812 92.601562 140.160156 93.203125 140.605469 C 93.808594 141.050781 94.464844 141.390625 95.175781 141.625 C 95.890625 141.859375 96.621094 141.980469 97.371094 141.980469 L 277.621094 141.980469 C 278.371094 141.980469 279.101562 141.859375 279.816406 141.625 C 280.527344 141.390625 281.183594 141.050781 281.789062 140.605469 C 282.390625 140.160156 282.910156 139.632812 283.34375 139.019531 C 283.777344 138.410156 284.105469 137.746094 284.328125 137.03125 C 284.550781 136.316406 284.65625 135.582031 284.644531 134.832031 C 284.632812 134.082031 284.503906 133.355469 284.257812 132.644531 C 284.015625 131.9375 283.664062 131.285156 283.210938 130.6875 C 282.757812 130.089844 282.222656 129.578125 281.605469 129.152344 Z M 281.605469 129.152344 " fill-opacity="1" fill-rule="nonzero"/><path fill="#ffffff" d="M 120.460938 153.128906 L 134.585938 153.128906 C 135.085938 153.128906 135.582031 153.175781 136.074219 153.273438 C 136.5625 153.371094 137.039062 153.515625 137.503906 153.707031 C 137.964844 153.898438 138.40625 154.132812 138.820312 154.414062 C 139.238281 154.691406 139.621094 155.007812 139.976562 155.359375 C 140.332031 155.714844 140.648438 156.101562 140.925781 156.515625 C 141.203125 156.933594 141.4375 157.371094 141.628906 157.835938 C 141.820312 158.296875 141.964844 158.773438 142.0625 159.265625 C 142.160156 159.753906 142.210938 160.25 142.210938 160.75 L 142.210938 227.449219 C 142.210938 227.949219 142.160156 228.445312 142.0625 228.9375 C 141.964844 229.429688 141.820312 229.90625 141.628906 230.367188 C 141.4375 230.828125 141.203125 231.269531 140.925781 231.683594 C 140.648438 232.101562 140.332031 232.488281 139.976562 232.839844 C 139.621094 233.195312 139.238281 233.511719 138.820312 233.789062 C 138.40625 234.066406 137.964844 234.300781 137.503906 234.492188 C 137.039062 234.683594 136.5625 234.828125 136.074219 234.925781 C 135.582031 235.023438 135.085938 235.074219 134.585938 235.074219 L 120.460938 235.074219 C 119.960938 235.074219 119.464844 235.023438 118.972656 234.925781 C 118.480469 234.828125 118.003906 234.683594 117.542969 234.492188 C 117.082031 234.300781 116.640625 234.066406 116.226562 233.789062 C 115.808594 233.511719 115.421875 233.195312 115.070312 232.839844 C 114.714844 232.488281 114.398438 232.101562 114.121094 231.683594 C 113.84375 231.269531 113.609375 230.828125 113.417969 230.367188 C 113.226562 229.90625 113.082031 229.429688 112.984375 228.9375 C 112.886719 228.445312 112.835938 227.949219 112.835938 227.449219 L 112.835938 160.75 C 112.835938 160.25 112.886719 159.753906 112.984375 159.265625 C 113.082031 158.773438 113.226562 158.296875 113.417969 157.835938 C 113.609375 157.371094 113.84375 156.933594 114.121094 156.515625 C 114.398438 156.101562 114.714844 155.714844 115.070312 155.359375 C 115.421875 155.007812 115.808594 154.691406 116.226562 154.414062 C 116.640625 154.132812 117.082031 153.898438 117.542969 153.707031 C 118.003906 153.515625 118.480469 153.371094 118.972656 153.273438 C 119.464844 153.175781 119.960938 153.128906 120.460938 153.128906 Z M 120.460938 153.128906 " fill-opacity="1" fill-rule="nonzero"/><path fill="#ffffff" d="M 183.460938 153.128906 L 197.585938 153.128906 C 198.085938 153.128906 198.582031 153.175781 199.074219 153.273438 C 199.5625 153.371094 200.039062 153.515625 200.503906 153.707031 C 200.964844 153.898438 201.40625 154.132812 201.820312 154.414062 C 202.238281 154.691406 202.621094 155.007812 202.976562 155.359375 C 203.332031 155.714844 203.648438 156.101562 203.925781 156.515625 C 204.203125 156.933594 204.4375 157.371094 204.628906 157.835938 C 204.820312 158.296875 204.964844 158.773438 205.0625 159.265625 C 205.160156 159.753906 205.210938 160.25 205.210938 160.75 L 205.210938 227.449219 C 205.210938 227.949219 205.160156 228.445312 205.0625 228.9375 C 204.964844 229.429688 204.820312 229.90625 204.628906 230.367188 C 204.4375 230.828125 204.203125 231.269531 203.925781 231.683594 C 203.648438 232.101562 203.332031 232.488281 202.976562 232.839844 C 202.621094 233.195312 202.238281 233.511719 201.820312 233.789062 C 201.40625 234.066406 200.964844 234.300781 200.503906 234.492188 C 200.039062 234.683594 199.5625 234.828125 199.074219 234.925781 C 198.582031 235.023438 198.085938 235.074219 197.585938 235.074219 L 183.460938 235.074219 C 182.960938 235.074219 182.464844 235.023438 181.972656 234.925781 C 181.480469 234.828125 181.003906 234.683594 180.542969 234.492188 C 180.082031 234.300781 179.640625 234.066406 179.226562 233.789062 C 178.808594 233.511719 178.421875 233.195312 178.070312 232.839844 C 177.714844 232.488281 177.398438 232.101562 177.121094 231.683594 C 176.84375 231.269531 176.609375 230.828125 176.417969 230.367188 C 176.226562 229.90625 176.082031 229.429688 175.984375 228.9375 C 175.886719 228.445312 175.835938 227.949219 175.835938 227.449219 L 175.835938 160.75 C 175.835938 160.25 175.886719 159.753906 175.984375 159.265625 C 176.082031 158.773438 176.226562 158.296875 176.417969 157.835938 C 176.609375 157.371094 176.84375 156.933594 177.121094 156.515625 C 177.398438 156.101562 177.714844 155.714844 178.070312 155.359375 C 178.421875 155.007812 178.808594 154.691406 179.226562 154.414062 C 179.640625 154.132812 180.082031 153.898438 180.542969 153.707031 C 181.003906 153.515625 181.480469 153.371094 181.972656 153.273438 C 182.464844 153.175781 182.960938 153.128906 183.460938 153.128906 Z M 183.460938 153.128906 " fill-opacity="1" fill-rule="nonzero"/><path fill="#ffffff" d="M 240.417969 153.128906 L 254.542969 153.128906 C 255.042969 153.128906 255.539062 153.175781 256.03125 153.273438 C 256.523438 153.371094 257 153.515625 257.460938 153.707031 C 257.921875 153.898438 258.363281 154.132812 258.777344 154.414062 C 259.195312 154.691406 259.582031 155.007812 259.933594 155.359375 C 260.289062 155.714844 260.605469 156.101562 260.882812 156.515625 C 261.160156 156.933594 261.394531 157.371094 261.585938 157.835938 C 261.777344 158.296875 261.921875 158.773438 262.019531 159.265625 C 262.117188 159.753906 262.167969 160.25 262.167969 160.75 L 262.167969 227.449219 C 262.167969 227.949219 262.117188 228.445312 262.019531 228.9375 C 261.921875 229.429688 261.777344 229.90625 261.585938 230.367188 C 261.394531 230.828125 261.160156 231.269531 260.882812 231.683594 C 260.605469 232.101562 260.289062 232.488281 259.933594 232.839844 C 259.582031 233.195312 259.195312 233.511719 258.777344 233.789062 C 258.363281 234.066406 257.921875 234.300781 257.460938 234.492188 C 257 234.683594 256.523438 234.828125 256.03125 234.925781 C 255.539062 235.023438 255.042969 235.074219 254.542969 235.074219 L 240.417969 235.074219 C 239.917969 235.074219 239.421875 235.023438 238.929688 234.925781 C 238.441406 234.828125 237.964844 234.683594 237.5 234.492188 C 237.039062 234.300781 236.597656 234.066406 236.183594 233.789062 C 235.765625 233.511719 235.382812 233.195312 235.027344 232.839844 C 234.671875 232.488281 234.355469 232.101562 234.078125 231.683594 C 233.800781 231.269531 233.566406 230.828125 233.375 230.367188 C 233.183594 229.90625 233.039062 229.429688 232.941406 228.9375 C 232.84375 228.445312 232.792969 227.949219 232.792969 227.449219 L 232.792969 160.75 C 232.792969 160.25 232.84375 159.753906 232.941406 159.265625 C 233.039062 158.773438 233.183594 158.296875 233.375 157.835938 C 233.566406 157.371094 233.800781 156.933594 234.078125 156.515625 C 234.355469 156.101562 234.671875 155.714844 235.027344 155.359375 C 235.382812 155.007812 235.765625 154.691406 236.183594 154.414062 C 236.597656 154.132812 237.039062 153.898438 237.5 153.707031 C 237.964844 153.515625 238.441406 153.371094 238.929688 153.273438 C 239.421875 153.175781 239.917969 153.128906 240.417969 153.128906 Z M 240.417969 153.128906 " fill-opacity="1" fill-rule="nonzero"/><path fill="#ffffff" d="M 112.355469 246.230469 L 262.625 246.230469 C 263.382812 246.230469 264.136719 246.304688 264.878906 246.453125 C 265.621094 246.601562 266.34375 246.820312 267.046875 247.109375 C 267.746094 247.402344 268.410156 247.757812 269.042969 248.179688 C 269.671875 248.601562 270.257812 249.078125 270.792969 249.613281 C 271.328125 250.152344 271.808594 250.734375 272.230469 251.367188 C 272.652344 251.996094 273.007812 252.660156 273.296875 253.363281 C 273.585938 254.0625 273.804688 254.785156 273.953125 255.527344 C 274.101562 256.273438 274.175781 257.023438 274.175781 257.78125 L 274.175781 267.371094 C 274.175781 268.128906 274.101562 268.878906 273.953125 269.625 C 273.804688 270.367188 273.585938 271.089844 273.296875 271.789062 C 273.007812 272.492188 272.652344 273.15625 272.230469 273.789062 C 271.808594 274.417969 271.328125 275 270.792969 275.539062 C 270.257812 276.074219 269.671875 276.554688 269.042969 276.972656 C 268.410156 277.394531 267.746094 277.75 267.046875 278.042969 C 266.34375 278.332031 265.621094 278.550781 264.878906 278.699219 C 264.136719 278.847656 263.382812 278.921875 262.625 278.921875 L 112.355469 278.921875 C 111.597656 278.921875 110.847656 278.847656 110.101562 278.699219 C 109.359375 278.550781 108.636719 278.332031 107.9375 278.042969 C 107.234375 277.75 106.570312 277.394531 105.9375 276.972656 C 105.308594 276.554688 104.726562 276.074219 104.1875 275.539062 C 103.652344 275 103.171875 274.417969 102.753906 273.789062 C 102.332031 273.15625 101.976562 272.492188 101.683594 271.789062 C 101.394531 271.089844 101.175781 270.367188 101.027344 269.625 C 100.878906 268.878906 100.804688 268.128906 100.804688 267.371094 L 100.804688 257.78125 C 100.804688 257.023438 100.878906 256.273438 101.027344 255.527344 C 101.175781 254.785156 101.394531 254.0625 101.683594 253.363281 C 101.976562 252.660156 102.332031 251.996094 102.753906 251.367188 C 103.171875 250.734375 103.652344 250.152344 104.1875 249.613281 C 104.726562 249.078125 105.308594 248.601562 105.9375 248.179688 C 106.570312 247.757812 107.234375 247.402344 107.9375 247.109375 C 108.636719 246.820312 109.359375 246.601562 110.101562 246.453125 C 110.847656 246.304688 111.597656 246.230469 112.355469 246.230469 Z M 112.355469 246.230469 " fill-opacity="1" fill-rule="nonzero"/></svg>