<svg xmlns="http://www.w3.org/2000/svg" xmlns:xlink="http://www.w3.org/1999/xlink" width="500" zoomAndPan="magnify" viewBox="0 0 375 374.999991" height="500" preserveAspectRatio="xMidYMid meet" version="1.0"><defs><clipPath id="bd92aa077a"><path d="M 8.019531 8.019531 L 367.269531 8.019531 L 367.269531 367.269531 L 8.019531 367.269531 Z M 8.019531 8.019531 " clip-rule="nonzero"/></clipPath></defs><rect x="-37.5" width="450" fill="#ffffff" y="-37.499999" height="449.999989" fill-opacity="1"/><rect x="-37.5" width="450" fill="#ffffff" y="-37.499999" height="449.999989" fill-opacity="1"/><g clip-path="url(#bd92aa077a)"><path fill="#662d91" d="M 367.269531 187.644531 C 367.269531 190.582031 367.195312 193.519531 367.050781 196.457031 C 366.90625 199.394531 366.691406 202.324219 366.402344 205.25 C 366.113281 208.175781 365.753906 211.089844 365.324219 214 C 364.890625 216.90625 364.390625 219.804688 363.816406 222.6875 C 363.242188 225.570312 362.597656 228.4375 361.882812 231.289062 C 361.171875 234.140625 360.386719 236.972656 359.535156 239.785156 C 358.679688 242.597656 357.757812 245.390625 356.769531 248.15625 C 355.777344 250.925781 354.71875 253.667969 353.59375 256.382812 C 352.46875 259.097656 351.277344 261.785156 350.023438 264.441406 C 348.765625 267.101562 347.445312 269.726562 346.058594 272.316406 C 344.671875 274.910156 343.222656 277.46875 341.710938 279.988281 C 340.199219 282.511719 338.628906 284.992188 336.996094 287.4375 C 335.363281 289.882812 333.671875 292.285156 331.917969 294.644531 C 330.167969 297.007812 328.359375 299.324219 326.496094 301.597656 C 324.628906 303.867188 322.710938 306.09375 320.734375 308.273438 C 318.761719 310.449219 316.734375 312.578125 314.65625 314.65625 C 312.578125 316.734375 310.449219 318.761719 308.273438 320.734375 C 306.09375 322.710938 303.867188 324.628906 301.597656 326.496094 C 299.324219 328.359375 297.007812 330.167969 294.644531 331.917969 C 292.285156 333.671875 289.882812 335.363281 287.4375 336.996094 C 284.992188 338.628906 282.511719 340.199219 279.988281 341.710938 C 277.46875 343.222656 274.910156 344.671875 272.316406 346.058594 C 269.726562 347.445312 267.101562 348.765625 264.441406 350.023438 C 261.785156 351.277344 259.097656 352.46875 256.382812 353.59375 C 253.667969 354.71875 250.925781 355.777344 248.15625 356.769531 C 245.390625 357.757812 242.597656 358.679688 239.785156 359.535156 C 236.972656 360.386719 234.140625 361.171875 231.289062 361.882812 C 228.4375 362.597656 225.570312 363.242188 222.6875 363.816406 C 219.804688 364.390625 216.90625 364.890625 214 365.324219 C 211.089844 365.753906 208.175781 366.113281 205.25 366.402344 C 202.324219 366.691406 199.394531 366.90625 196.457031 367.050781 C 193.519531 367.195312 190.582031 367.269531 187.644531 367.269531 C 184.703125 367.269531 181.765625 367.195312 178.828125 367.050781 C 175.894531 366.90625 172.960938 366.691406 170.035156 366.402344 C 167.109375 366.113281 164.195312 365.753906 161.285156 365.324219 C 158.378906 364.890625 155.484375 364.390625 152.601562 363.816406 C 149.714844 363.242188 146.847656 362.597656 143.996094 361.882812 C 141.144531 361.171875 138.3125 360.386719 135.5 359.535156 C 132.6875 358.679688 129.898438 357.757812 127.128906 356.769531 C 124.359375 355.777344 121.621094 354.71875 118.902344 353.59375 C 116.1875 352.46875 113.5 351.277344 110.84375 350.023438 C 108.1875 348.765625 105.5625 347.445312 102.96875 346.058594 C 100.375 344.671875 97.820312 343.222656 95.296875 341.710938 C 92.777344 340.199219 90.292969 338.628906 87.847656 336.996094 C 85.40625 335.363281 83 333.671875 80.640625 331.917969 C 78.277344 330.167969 75.960938 328.359375 73.691406 326.496094 C 71.417969 324.628906 69.191406 322.710938 67.015625 320.734375 C 64.835938 318.761719 62.707031 316.734375 60.628906 314.65625 C 58.550781 312.578125 56.523438 310.449219 54.550781 308.273438 C 52.574219 306.09375 50.65625 303.867188 48.789062 301.597656 C 46.925781 299.324219 45.117188 297.007812 43.367188 294.644531 C 41.617188 292.285156 39.921875 289.882812 38.289062 287.4375 C 36.65625 284.992188 35.085938 282.511719 33.574219 279.988281 C 32.0625 277.46875 30.613281 274.910156 29.226562 272.316406 C 27.84375 269.726562 26.519531 267.101562 25.265625 264.441406 C 24.007812 261.785156 22.816406 259.097656 21.691406 256.382812 C 20.566406 253.667969 19.507812 250.925781 18.519531 248.15625 C 17.527344 245.390625 16.605469 242.597656 15.753906 239.785156 C 14.898438 236.972656 14.117188 234.140625 13.402344 231.289062 C 12.6875 228.4375 12.042969 225.570312 11.46875 222.6875 C 10.894531 219.804688 10.394531 216.90625 9.960938 214 C 9.53125 211.089844 9.171875 208.175781 8.882812 205.25 C 8.59375 202.324219 8.378906 199.394531 8.234375 196.457031 C 8.089844 193.519531 8.019531 190.582031 8.019531 187.644531 C 8.019531 184.703125 8.089844 181.765625 8.234375 178.828125 C 8.378906 175.894531 8.59375 172.960938 8.882812 170.035156 C 9.171875 167.109375 9.53125 164.195312 9.960938 161.285156 C 10.394531 158.378906 10.894531 155.484375 11.46875 152.601562 C 12.042969 149.714844 12.6875 146.847656 13.402344 143.996094 C 14.117188 141.144531 14.898438 138.3125 15.753906 135.5 C 16.605469 132.6875 17.527344 129.898438 18.519531 127.128906 C 19.507812 124.359375 20.566406 121.621094 21.691406 118.902344 C 22.816406 116.1875 24.007812 113.5 25.265625 110.84375 C 26.519531 108.1875 27.84375 105.5625 29.226562 102.96875 C 30.613281 100.375 32.0625 97.820312 33.574219 95.296875 C 35.085938 92.777344 36.65625 90.292969 38.289062 87.847656 C 39.921875 85.40625 41.617188 83 43.367188 80.640625 C 45.117188 78.277344 46.925781 75.960938 48.789062 73.691406 C 50.65625 71.417969 52.574219 69.191406 54.550781 67.015625 C 56.523438 64.835938 58.550781 62.707031 60.628906 60.628906 C 62.707031 58.550781 64.835938 56.523438 67.015625 54.550781 C 69.191406 52.574219 71.417969 50.65625 73.691406 48.789062 C 75.960938 46.925781 78.277344 45.117188 80.640625 43.367188 C 83 41.617188 85.40625 39.921875 87.847656 38.289062 C 90.292969 36.65625 92.777344 35.085938 95.296875 33.574219 C 97.820312 32.0625 100.375 30.613281 102.96875 29.226562 C 105.5625 27.84375 108.1875 26.519531 110.84375 25.265625 C 113.5 24.007812 116.1875 22.816406 118.902344 21.691406 C 121.621094 20.566406 124.359375 19.507812 127.128906 18.519531 C 129.898438 17.527344 132.6875 16.605469 135.5 15.753906 C 138.3125 14.898438 141.144531 14.117188 143.996094 13.402344 C 146.847656 12.6875 149.714844 12.042969 152.601562 11.46875 C 155.484375 10.894531 158.378906 10.394531 161.285156 9.960938 C 164.195312 9.53125 167.109375 9.171875 170.035156 8.882812 C 172.960938 8.59375 175.894531 8.378906 178.828125 8.234375 C 181.765625 8.089844 184.703125 8.019531 187.644531 8.019531 C 190.582031 8.019531 193.519531 8.089844 196.457031 8.234375 C 199.394531 8.378906 202.324219 8.59375 205.25 8.882812 C 208.175781 9.171875 211.089844 9.53125 214 9.960938 C 216.90625 10.394531 219.804688 10.894531 222.6875 11.46875 C 225.570312 12.042969 228.4375 12.6875 231.289062 13.402344 C 234.140625 14.117188 236.972656 14.898438 239.785156 15.753906 C 242.597656 16.605469 245.390625 17.527344 248.15625 18.519531 C 250.925781 19.507812 253.667969 20.566406 256.382812 21.691406 C 259.097656 22.816406 261.785156 24.007812 264.441406 25.265625 C 267.101562 26.519531 269.726562 27.84375 272.316406 29.226562 C 274.910156 30.613281 277.46875 32.0625 279.988281 33.574219 C 282.511719 35.085938 284.992188 36.65625 287.4375 38.289062 C 289.882812 39.921875 292.285156 41.617188 294.644531 43.367188 C 297.007812 45.117188 299.324219 46.925781 301.597656 48.789062 C 303.867188 50.65625 306.09375 52.574219 308.273438 54.550781 C 310.449219 56.523438 312.578125 58.550781 314.65625 60.628906 C 316.734375 62.707031 318.761719 64.835938 320.734375 67.015625 C 322.710938 69.191406 324.628906 71.417969 326.496094 73.691406 C 328.359375 75.960938 330.167969 78.277344 331.917969 80.640625 C 333.671875 83 335.363281 85.40625 336.996094 87.847656 C 338.628906 90.292969 340.199219 92.777344 341.710938 95.296875 C 343.222656 97.820312 344.671875 100.375 346.058594 102.96875 C 347.445312 105.5625 348.765625 108.1875 350.023438 110.84375 C 351.277344 113.5 352.46875 116.1875 353.59375 118.902344 C 354.71875 121.621094 355.777344 124.359375 356.769531 127.128906 C 357.757812 129.898438 358.679688 132.6875 359.535156 135.5 C 360.386719 138.3125 361.171875 141.144531 361.882812 143.996094 C 362.597656 146.847656 363.242188 149.714844 363.816406 152.601562 C 364.390625 155.484375 364.890625 158.378906 365.324219 161.285156 C 365.753906 164.195312 366.113281 167.109375 366.402344 170.035156 C 366.691406 172.960938 366.90625 175.894531 367.050781 178.828125 C 367.195312 181.765625 367.269531 184.703125 367.269531 187.644531 Z M 367.269531 187.644531 " fill-opacity="1" fill-rule="nonzero"/></g><path fill="#ffffff" d="M 281.828125 129.253906 L 191.628906 67.324219 C 191.039062 66.921875 190.40625 66.617188 189.730469 66.40625 C 189.050781 66.195312 188.355469 66.089844 187.644531 66.089844 C 186.933594 66.089844 186.238281 66.195312 185.558594 66.40625 C 184.878906 66.617188 184.246094 66.921875 183.660156 67.324219 L 93.457031 129.253906 C 92.839844 129.679688 92.304688 130.191406 91.851562 130.789062 C 91.398438 131.382812 91.046875 132.039062 90.800781 132.746094 C 90.554688 133.457031 90.425781 134.1875 90.414062 134.9375 C 90.402344 135.6875 90.507812 136.417969 90.730469 137.136719 C 90.953125 137.851562 91.28125 138.515625 91.714844 139.128906 C 92.152344 139.738281 92.671875 140.269531 93.273438 140.714844 C 93.878906 141.160156 94.535156 141.5 95.25 141.734375 C 95.960938 141.96875 96.691406 142.089844 97.441406 142.089844 L 277.84375 142.089844 C 278.59375 142.089844 279.324219 141.96875 280.039062 141.734375 C 280.75 141.5 281.40625 141.160156 282.011719 140.714844 C 282.613281 140.269531 283.132812 139.738281 283.570312 139.128906 C 284.003906 138.515625 284.332031 137.851562 284.554688 137.136719 C 284.777344 136.417969 284.882812 135.6875 284.871094 134.9375 C 284.859375 134.1875 284.730469 133.457031 284.484375 132.746094 C 284.238281 132.039062 283.890625 131.382812 283.433594 130.789062 C 282.980469 130.191406 282.445312 129.679688 281.828125 129.253906 Z M 281.828125 129.253906 " fill-opacity="1" fill-rule="nonzero"/><path fill="#ffffff" d="M 120.550781 153.246094 L 134.6875 153.246094 C 135.191406 153.246094 135.6875 153.296875 136.175781 153.394531 C 136.667969 153.492188 137.144531 153.636719 137.609375 153.828125 C 138.070312 154.019531 138.511719 154.253906 138.929688 154.53125 C 139.34375 154.808594 139.730469 155.125 140.085938 155.480469 C 140.4375 155.835938 140.753906 156.222656 141.03125 156.636719 C 141.3125 157.054688 141.546875 157.492188 141.738281 157.957031 C 141.929688 158.417969 142.074219 158.898438 142.171875 159.386719 C 142.269531 159.878906 142.320312 160.375 142.320312 160.875 L 142.320312 227.628906 C 142.320312 228.128906 142.269531 228.625 142.171875 229.117188 C 142.074219 229.609375 141.929688 230.085938 141.738281 230.546875 C 141.546875 231.011719 141.3125 231.453125 141.03125 231.867188 C 140.753906 232.285156 140.4375 232.667969 140.085938 233.023438 C 139.730469 233.378906 139.34375 233.695312 138.929688 233.972656 C 138.511719 234.25 138.070312 234.488281 137.609375 234.679688 C 137.144531 234.871094 136.667969 235.015625 136.175781 235.113281 C 135.6875 235.210938 135.191406 235.257812 134.6875 235.257812 L 120.550781 235.257812 C 120.050781 235.257812 119.554688 235.210938 119.0625 235.113281 C 118.574219 235.015625 118.09375 234.871094 117.632812 234.679688 C 117.167969 234.488281 116.730469 234.25 116.3125 233.972656 C 115.898438 233.695312 115.511719 233.378906 115.15625 233.023438 C 114.800781 232.667969 114.484375 232.285156 114.207031 231.867188 C 113.929688 231.453125 113.695312 231.011719 113.503906 230.546875 C 113.3125 230.085938 113.167969 229.609375 113.070312 229.117188 C 112.972656 228.625 112.921875 228.128906 112.921875 227.628906 L 112.921875 160.875 C 112.921875 160.375 112.972656 159.878906 113.070312 159.386719 C 113.167969 158.898438 113.3125 158.417969 113.503906 157.957031 C 113.695312 157.492188 113.929688 157.054688 114.207031 156.636719 C 114.484375 156.222656 114.800781 155.835938 115.15625 155.480469 C 115.511719 155.125 115.898438 154.808594 116.3125 154.53125 C 116.730469 154.253906 117.167969 154.019531 117.632812 153.828125 C 118.09375 153.636719 118.574219 153.492188 119.0625 153.394531 C 119.554688 153.296875 120.050781 153.246094 120.550781 153.246094 Z M 120.550781 153.246094 " fill-opacity="1" fill-rule="nonzero"/><path fill="#ffffff" d="M 183.605469 153.246094 L 197.742188 153.246094 C 198.242188 153.246094 198.738281 153.296875 199.230469 153.394531 C 199.71875 153.492188 200.199219 153.636719 200.660156 153.828125 C 201.125 154.019531 201.5625 154.253906 201.980469 154.53125 C 202.394531 154.808594 202.78125 155.125 203.136719 155.480469 C 203.488281 155.835938 203.804688 156.222656 204.085938 156.636719 C 204.363281 157.054688 204.597656 157.492188 204.789062 157.957031 C 204.980469 158.417969 205.125 158.898438 205.222656 159.386719 C 205.320312 159.878906 205.371094 160.375 205.371094 160.875 L 205.371094 227.628906 C 205.371094 228.128906 205.320312 228.625 205.222656 229.117188 C 205.125 229.609375 204.980469 230.085938 204.789062 230.546875 C 204.597656 231.011719 204.363281 231.453125 204.085938 231.867188 C 203.804688 232.285156 203.488281 232.667969 203.136719 233.023438 C 202.78125 233.378906 202.394531 233.695312 201.980469 233.972656 C 201.5625 234.25 201.125 234.488281 200.660156 234.679688 C 200.199219 234.871094 199.71875 235.015625 199.230469 235.113281 C 198.738281 235.210938 198.242188 235.257812 197.742188 235.257812 L 183.605469 235.257812 C 183.101562 235.257812 182.605469 235.210938 182.117188 235.113281 C 181.625 235.015625 181.148438 234.871094 180.683594 234.679688 C 180.222656 234.488281 179.78125 234.25 179.363281 233.972656 C 178.949219 233.695312 178.5625 233.378906 178.207031 233.023438 C 177.855469 232.667969 177.539062 232.285156 177.257812 231.867188 C 176.980469 231.453125 176.746094 231.011719 176.554688 230.546875 C 176.363281 230.085938 176.21875 229.609375 176.121094 229.117188 C 176.023438 228.625 175.972656 228.128906 175.972656 227.628906 L 175.972656 160.875 C 175.972656 160.375 176.023438 159.878906 176.121094 159.386719 C 176.21875 158.898438 176.363281 158.417969 176.554688 157.957031 C 176.746094 157.492188 176.980469 157.054688 177.257812 156.636719 C 177.539062 156.222656 177.855469 155.835938 178.207031 155.480469 C 178.5625 155.125 178.949219 154.808594 179.363281 154.53125 C 179.78125 154.253906 180.222656 154.019531 180.683594 153.828125 C 181.148438 153.636719 181.625 153.492188 182.117188 153.394531 C 182.605469 153.296875 183.101562 153.246094 183.605469 153.246094 Z M 183.605469 153.246094 " fill-opacity="1" fill-rule="nonzero"/><path fill="#ffffff" d="M 240.609375 153.246094 L 254.746094 153.246094 C 255.246094 153.246094 255.742188 153.296875 256.234375 153.394531 C 256.722656 153.492188 257.203125 153.636719 257.664062 153.828125 C 258.128906 154.019531 258.566406 154.253906 258.984375 154.53125 C 259.398438 154.808594 259.785156 155.125 260.140625 155.480469 C 260.492188 155.835938 260.808594 156.222656 261.089844 156.636719 C 261.367188 157.054688 261.601562 157.492188 261.792969 157.957031 C 261.984375 158.417969 262.128906 158.898438 262.226562 159.386719 C 262.324219 159.878906 262.375 160.375 262.375 160.875 L 262.375 227.628906 C 262.375 228.128906 262.324219 228.625 262.226562 229.117188 C 262.128906 229.609375 261.984375 230.085938 261.792969 230.546875 C 261.601562 231.011719 261.367188 231.453125 261.089844 231.867188 C 260.808594 232.285156 260.492188 232.667969 260.140625 233.023438 C 259.785156 233.378906 259.398438 233.695312 258.984375 233.972656 C 258.566406 234.25 258.128906 234.488281 257.664062 234.679688 C 257.203125 234.871094 256.722656 235.015625 256.234375 235.113281 C 255.742188 235.210938 255.246094 235.257812 254.746094 235.257812 L 240.609375 235.257812 C 240.105469 235.257812 239.609375 235.210938 239.121094 235.113281 C 238.628906 235.015625 238.152344 234.871094 237.6875 234.679688 C 237.226562 234.488281 236.785156 234.25 236.367188 233.972656 C 235.953125 233.695312 235.566406 233.378906 235.210938 233.023438 C 234.859375 232.667969 234.542969 232.285156 234.261719 231.867188 C 233.984375 231.453125 233.75 231.011719 233.558594 230.546875 C 233.367188 230.085938 233.222656 229.609375 233.125 229.117188 C 233.027344 228.625 232.976562 228.128906 232.976562 227.628906 L 232.976562 160.875 C 232.976562 160.375 233.027344 159.878906 233.125 159.386719 C 233.222656 158.898438 233.367188 158.417969 233.558594 157.957031 C 233.75 157.492188 233.984375 157.054688 234.261719 156.636719 C 234.542969 156.222656 234.859375 155.835938 235.210938 155.480469 C 235.566406 155.125 235.953125 154.808594 236.367188 154.53125 C 236.785156 154.253906 237.226562 154.019531 237.6875 153.828125 C 238.152344 153.636719 238.628906 153.492188 239.121094 153.394531 C 239.609375 153.296875 240.105469 153.246094 240.609375 153.246094 Z M 240.609375 153.246094 " fill-opacity="1" fill-rule="nonzero"/><path fill="#ffffff" d="M 112.441406 246.425781 L 262.832031 246.425781 C 263.59375 246.425781 264.34375 246.5 265.089844 246.648438 C 265.832031 246.796875 266.554688 247.015625 267.257812 247.304688 C 267.957031 247.597656 268.625 247.953125 269.253906 248.375 C 269.886719 248.796875 270.472656 249.277344 271.007812 249.8125 C 271.542969 250.347656 272.023438 250.933594 272.445312 251.5625 C 272.867188 252.195312 273.222656 252.859375 273.511719 253.5625 C 273.804688 254.265625 274.023438 254.988281 274.171875 255.730469 C 274.320312 256.476562 274.394531 257.226562 274.394531 257.988281 L 274.394531 267.582031 C 274.394531 268.339844 274.320312 269.09375 274.171875 269.835938 C 274.023438 270.582031 273.804688 271.304688 273.511719 272.003906 C 273.222656 272.707031 272.867188 273.375 272.445312 274.003906 C 272.023438 274.636719 271.542969 275.21875 271.007812 275.757812 C 270.472656 276.292969 269.886719 276.773438 269.253906 277.195312 C 268.625 277.617188 267.957031 277.972656 267.257812 278.261719 C 266.554688 278.550781 265.832031 278.773438 265.089844 278.917969 C 264.34375 279.066406 263.59375 279.140625 262.832031 279.140625 L 112.441406 279.140625 C 111.683594 279.140625 110.929688 279.066406 110.1875 278.917969 C 109.441406 278.773438 108.71875 278.550781 108.019531 278.261719 C 107.316406 277.972656 106.648438 277.617188 106.019531 277.195312 C 105.386719 276.773438 104.804688 276.292969 104.265625 275.757812 C 103.730469 275.21875 103.25 274.636719 102.828125 274.003906 C 102.40625 273.375 102.050781 272.707031 101.761719 272.003906 C 101.472656 271.304688 101.25 270.582031 101.105469 269.835938 C 100.957031 269.09375 100.882812 268.339844 100.882812 267.582031 L 100.882812 257.988281 C 100.882812 257.226562 100.957031 256.476562 101.105469 255.730469 C 101.25 254.988281 101.472656 254.265625 101.761719 253.5625 C 102.050781 252.859375 102.40625 252.195312 102.828125 251.5625 C 103.25 250.933594 103.730469 250.347656 104.265625 249.8125 C 104.804688 249.277344 105.386719 248.796875 106.019531 248.375 C 106.648438 247.953125 107.316406 247.597656 108.019531 247.304688 C 108.71875 247.015625 109.441406 246.796875 110.1875 246.648438 C 110.929688 246.5 111.683594 246.425781 112.441406 246.425781 Z M 112.441406 246.425781 " fill-opacity="1" fill-rule="nonzero"/></svg>